<svg xmlns="http://www.w3.org/2000/svg" viewBox="0 0 555.86 77.77"><g id="Layer_2" data-name="Layer 2"><g id="Layer_1-2" data-name="Layer 1"><path d="M112.89.15a9.85,9.85,0,0,1,3.8.57A13.83,13.83,0,0,1,119,2c.4.23.73.41,1,.52a1.66,1.66,0,0,0,.72.18c.53,0,.9-.73,1.1-2.2h1.15c0,.57-.07,1.24-.12,2s-.09,1.82-.1,3.1,0,3,0,5.08h-1.15a14.47,14.47,0,0,0-1.05-4.6,8.81,8.81,0,0,0-2.62-3.6,7,7,0,0,0-4.53-1.4A6.15,6.15,0,0,0,109,2.7a5.47,5.47,0,0,0-1.73,4.2,6,6,0,0,0,1.15,3.77,11.37,11.37,0,0,0,3.08,2.75q1.92,1.23,4.17,2.63a52.9,52.9,0,0,1,4.63,3.17,13.37,13.37,0,0,1,3.2,3.48,8.62,8.62,0,0,1,1.17,4.6,9.1,9.1,0,0,1-1.45,5.3,8.94,8.94,0,0,1-3.85,3.15,13.09,13.09,0,0,1-5.3,1,11.91,11.91,0,0,1-4.2-.6A18.92,18.92,0,0,1,107.19,35a3.57,3.57,0,0,0-1.7-.7c-.53,0-.9.73-1.1,2.2h-1.15c.07-.7.11-1.53.13-2.48s0-2.19,0-3.72,0-3.47,0-5.8h1.15a20.47,20.47,0,0,0,1.13,5.6,9.17,9.17,0,0,0,2.85,4.17,7.83,7.83,0,0,0,5.12,1.58,7.15,7.15,0,0,0,4.48-1.58q2-1.57,2-5.07a6.61,6.61,0,0,0-2.15-5,34.27,34.27,0,0,0-5.65-4.1c-1.57-1-3-1.95-4.4-2.95a12.33,12.33,0,0,1-3.27-3.47,8.87,8.87,0,0,1-1.23-4.78,8.38,8.38,0,0,1,1.33-4.88,7.89,7.89,0,0,1,3.47-2.84A11.46,11.46,0,0,1,112.89.15Z"/><path d="M157.14.7c-.13,1.17-.22,2.3-.27,3.4s-.08,1.93-.08,2.5,0,1.17.05,1.73.07,1,.1,1.37h-1.15A23.73,23.73,0,0,0,154.94,5a4,4,0,0,0-1.87-2.44,8.47,8.47,0,0,0-4-.73h-4.15a9.24,9.24,0,0,0-2.57.27,1.74,1.74,0,0,0-1.18,1.15,9.15,9.15,0,0,0-.3,2.73V30.8a9.1,9.1,0,0,0,.3,2.7,1.71,1.71,0,0,0,1.18,1.17,8.81,8.81,0,0,0,2.57.28h3.65a10.59,10.59,0,0,0,4.78-.85,5,5,0,0,0,2.35-2.77,22,22,0,0,0,1.07-5.23h1.15a34.14,34.14,0,0,0-.15,3.6c0,.63,0,1.54.08,2.72s.14,2.41.27,3.68c-1.7-.07-3.62-.11-5.75-.13l-5.7,0h-4l-5.28,0c-1.87,0-3.62.06-5.25.13v-1a10.57,10.57,0,0,0,2.58-.4,1.8,1.8,0,0,0,1.17-1.2,9.1,9.1,0,0,0,.3-2.7V6a9.15,9.15,0,0,0-.3-2.73,1.85,1.85,0,0,0-1.17-1.19,8.37,8.37,0,0,0-2.58-.38V.7l5.25.1c1.87,0,3.63,0,5.28,0h4l5.23,0C153.87.81,155.61.77,157.14.7Zm-8.6,17.1v1h-9.15v-1ZM150,11.2c-.13,1.9-.19,3.35-.17,4.35s0,1.92,0,2.75,0,1.75,0,2.75.12,2.45.25,4.35H149c-.13-1.07-.29-2.11-.47-3.13a4.89,4.89,0,0,0-1.2-2.5,4.19,4.19,0,0,0-3.13-1v-1a3.64,3.64,0,0,0,3.08-1.15,6,6,0,0,0,1.12-2.7l.45-2.75Z"/><path d="M182.09,0a13.26,13.26,0,0,1,5.43,1,18.61,18.61,0,0,1,3.77,2.28c.67.5,1.18.56,1.53.17A5.23,5.23,0,0,0,193.54.7h1.15q-.1,1.85-.15,4.5t0,7h-1.15c-.23-1.43-.45-2.58-.65-3.43A11.24,11.24,0,0,0,192,6.6a9.89,9.89,0,0,0-1.13-1.8,8.77,8.77,0,0,0-3.9-3A13.35,13.35,0,0,0,182,.9a8.25,8.25,0,0,0-4.42,1.22,10.68,10.68,0,0,0-3.4,3.53A18.49,18.49,0,0,0,172,11.2a31.37,31.37,0,0,0-.78,7.3,29.06,29.06,0,0,0,.85,7.42,17.08,17.08,0,0,0,2.38,5.43,10.3,10.3,0,0,0,3.6,3.32,9.22,9.22,0,0,0,4.47,1.13,13.6,13.6,0,0,0,4.7-.9A7.9,7.9,0,0,0,191,32a8.86,8.86,0,0,0,1.53-3.15,39.2,39.2,0,0,0,.77-4.75h1.15c0,3,0,5.48,0,7.32s.08,3.41.15,4.68h-1.15a5.67,5.67,0,0,0-.67-2.7c-.32-.37-.85-.32-1.58.15a26.73,26.73,0,0,1-3.92,2.28,12.76,12.76,0,0,1-5.33,1,15.84,15.84,0,0,1-8.32-2.15,14.28,14.28,0,0,1-5.55-6.2,22,22,0,0,1-2-9.75,22.06,22.06,0,0,1,2.05-9.8,16.07,16.07,0,0,1,5.63-6.55A14.58,14.58,0,0,1,182.09,0Z"/><path d="M203,.7c.7,0,1.62.07,2.75.1s2.25,0,3.35,0c1.57,0,3.07,0,4.5,0l3.05-.05q6,0,9.05,2.5a7.76,7.76,0,0,1,3,6.2,9.62,9.62,0,0,1-.6,3.2,8.77,8.77,0,0,1-2.07,3.2,11.35,11.35,0,0,1-4,2.48,18.49,18.49,0,0,1-6.45,1h-4.8v-1h4.3a10.67,10.67,0,0,0,5.43-1.13,5.75,5.75,0,0,0,2.55-3,12.24,12.24,0,0,0,.67-4.17,9.09,9.09,0,0,0-1.88-6.12c-1.25-1.46-3.39-2.18-6.42-2.18-1.53,0-2.53.28-3,.85s-.7,1.72-.7,3.45V30.8a9.1,9.1,0,0,0,.3,2.7,1.8,1.8,0,0,0,1.18,1.2,10.39,10.39,0,0,0,2.57.4v1C215,36,214.07,36,212.92,36l-3.48,0-3.65,0c-1.13,0-2,.06-2.75.13v-1a10.39,10.39,0,0,0,2.57-.4,1.8,1.8,0,0,0,1.18-1.2,9.1,9.1,0,0,0,.3-2.7V6a9.15,9.15,0,0,0-.3-2.73,1.84,1.84,0,0,0-1.18-1.19A8.25,8.25,0,0,0,203,1.7Zm8,17.75c1.8.07,3.22.14,4.25.22s1.87.16,2.53.23,1.27.15,1.87.25a8.83,8.83,0,0,1,4.83,2,9.33,9.33,0,0,1,2.17,4.58l1.25,5.1a13.08,13.08,0,0,0,1,3.17,1.64,1.64,0,0,0,1.62.93A2.33,2.33,0,0,0,232,34.4a8.87,8.87,0,0,0,1.22-1.35l.75.55A9.55,9.55,0,0,1,231.77,36a5.3,5.3,0,0,1-3.18.83,5.13,5.13,0,0,1-3.25-1.1c-.93-.73-1.63-2.17-2.1-4.3l-1.1-5a26.48,26.48,0,0,0-1-3.73,5.88,5.88,0,0,0-1.59-2.47,4.49,4.49,0,0,0-3-.9h-5.4Z"/><path d="M263.39.7c-.13,1.17-.22,2.3-.28,3.4S263,6,263,6.6s0,1.17,0,1.73.07,1,.1,1.37H262A23.73,23.73,0,0,0,261.19,5a4,4,0,0,0-1.87-2.44,8.47,8.47,0,0,0-4-.73h-4.15a9.37,9.37,0,0,0-2.58.27,1.75,1.75,0,0,0-1.17,1.15,9.15,9.15,0,0,0-.3,2.73V30.8a9.1,9.1,0,0,0,.3,2.7,1.72,1.72,0,0,0,1.17,1.17,8.93,8.93,0,0,0,2.58.28h3.65a10.51,10.51,0,0,0,4.77-.85A5,5,0,0,0,262,31.33,22,22,0,0,0,263,26.1h1.15a34.14,34.14,0,0,0-.15,3.6c0,.63,0,1.54.07,2.72s.15,2.41.28,3.68c-1.7-.07-3.62-.11-5.75-.13l-5.7,0h-4l-5.28,0c-1.87,0-3.62.06-5.25.13v-1a10.57,10.57,0,0,0,2.58-.4,1.8,1.8,0,0,0,1.17-1.2,9.1,9.1,0,0,0,.3-2.7V6a9.15,9.15,0,0,0-.3-2.73A1.85,1.85,0,0,0,241,2.08a8.37,8.37,0,0,0-2.58-.38V.7l5.25.1c1.87,0,3.63,0,5.28,0h4l5.23,0C260.11.81,261.86.77,263.39.7Zm-8.6,17.1v1h-9.15v-1Zm1.45-6.6c-.13,1.9-.19,3.35-.17,4.35s0,1.92,0,2.75,0,1.75.05,2.75.12,2.45.25,4.35h-1.15c-.13-1.07-.29-2.11-.47-3.13a4.89,4.89,0,0,0-1.2-2.5,4.19,4.19,0,0,0-3.13-1v-1a3.64,3.64,0,0,0,3.08-1.15,6,6,0,0,0,1.12-2.7l.45-2.75Z"/><path d="M299.39.7c-.13,1.27-.22,2.49-.28,3.68S299,6.47,299,7.1c0,.8,0,1.55,0,2.25s.07,1.32.1,1.85H298a31,31,0,0,0-1-5.53A4.85,4.85,0,0,0,295,2.75a9.31,9.31,0,0,0-4.65-.9h-2.7V30.3a9.06,9.06,0,0,0,.38,3,2.17,2.17,0,0,0,1.47,1.35,13.57,13.57,0,0,0,3.2.45v1c-.87-.07-2-.11-3.3-.13l-4.05,0-4.23,0c-1.31,0-2.37.06-3.17.13v-1a13.57,13.57,0,0,0,3.2-.45,2.17,2.17,0,0,0,1.47-1.35,9.06,9.06,0,0,0,.38-3V1.85h-2.7a9.28,9.28,0,0,0-4.62.9,4.81,4.81,0,0,0-2.13,2.92,31,31,0,0,0-1,5.53h-1.15a16.1,16.1,0,0,0,.12-1.85q0-1,0-2.25c0-.63,0-1.54-.07-2.72S271.37,2,271.24.7l4.57.1c1.65,0,3.31,0,5,0h9.07c1.66,0,3.31,0,5,0Z"/><path d="M317.64.45l12.2,31.45a5.22,5.22,0,0,0,1.7,2.52,3.62,3.62,0,0,0,1.75.68v1c-.67-.07-1.48-.11-2.45-.13l-2.9,0-3.65,0c-1.13,0-2.05.06-2.75.13v-1c1.7-.07,2.78-.36,3.25-.88s.37-1.62-.3-3.32l-9.3-24.85.8-.65L307.29,28a11.66,11.66,0,0,0-1,4.22,2.42,2.42,0,0,0,1.15,2.18,6.69,6.69,0,0,0,3.2.7v1c-.93-.07-1.91-.11-2.93-.13l-2.82,0-2.13,0a15.65,15.65,0,0,0-1.62.13v-1a5,5,0,0,0,2.05-1.18,8,8,0,0,0,1.9-3.17L316.84.45h.8Zm6.1,21.25v1h-14.9l.5-1Z"/><path d="M337.09.7c.7,0,1.62.07,2.75.1s2.25,0,3.35,0c1.57,0,3.07,0,4.5,0l3.05-.05q6,0,9.05,2.5a7.76,7.76,0,0,1,3,6.2,9.62,9.62,0,0,1-.6,3.2,8.68,8.68,0,0,1-2.08,3.2,11.22,11.22,0,0,1-4,2.48,18.49,18.49,0,0,1-6.45,1h-4.8v-1h4.3a10.63,10.63,0,0,0,5.42-1.13,5.71,5.71,0,0,0,2.55-3,12.24,12.24,0,0,0,.68-4.17,9.09,9.09,0,0,0-1.88-6.12c-1.25-1.46-3.39-2.18-6.42-2.18-1.53,0-2.53.28-3,.85s-.7,1.72-.7,3.45V30.8a9.1,9.1,0,0,0,.3,2.7,1.8,1.8,0,0,0,1.18,1.2,10.39,10.39,0,0,0,2.57.4v1C349.07,36,348.11,36,347,36l-3.47,0-3.65,0c-1.13,0-2,.06-2.75.13v-1a10.39,10.39,0,0,0,2.57-.4,1.8,1.8,0,0,0,1.18-1.2,9.1,9.1,0,0,0,.3-2.7V6a9.15,9.15,0,0,0-.3-2.73,1.84,1.84,0,0,0-1.18-1.19,8.25,8.25,0,0,0-2.57-.38Zm8,17.75c1.8.07,3.22.14,4.25.22s1.87.16,2.52.23,1.28.15,1.88.25a8.83,8.83,0,0,1,4.83,2,9.33,9.33,0,0,1,2.17,4.58l1.25,5.1A13.16,13.16,0,0,0,363,34a1.65,1.65,0,0,0,1.63.93A2.33,2.33,0,0,0,366,34.4a8.87,8.87,0,0,0,1.22-1.35l.75.55A9.57,9.57,0,0,1,365.81,36a5.27,5.27,0,0,1-3.17.83,5.13,5.13,0,0,1-3.25-1.1c-.93-.73-1.63-2.17-2.1-4.3l-1.1-5a26.48,26.48,0,0,0-1-3.73,5.8,5.8,0,0,0-1.6-2.47,4.45,4.45,0,0,0-3-.9h-5.4Z"/><path d="M385.24.7v1a8.37,8.37,0,0,0-2.58.38,1.85,1.85,0,0,0-1.17,1.19,9.15,9.15,0,0,0-.3,2.73V30.8a9.1,9.1,0,0,0,.3,2.7,1.8,1.8,0,0,0,1.17,1.2,10.57,10.57,0,0,0,2.58.4v1c-.77-.07-1.73-.11-2.88-.13l-3.47,0-3.65,0c-1.13,0-2.05.06-2.75.13v-1a10.39,10.39,0,0,0,2.57-.4,1.8,1.8,0,0,0,1.18-1.2,9.1,9.1,0,0,0,.3-2.7V6a9.15,9.15,0,0,0-.3-2.73,1.84,1.84,0,0,0-1.18-1.19,8.25,8.25,0,0,0-2.57-.38V.7c.7,0,1.62.07,2.75.1s2.35,0,3.65,0,2.32,0,3.47,0Z"/><path d="M406.49.45l12.2,31.45a5.22,5.22,0,0,0,1.7,2.52,3.62,3.62,0,0,0,1.75.68v1c-.67-.07-1.48-.11-2.45-.13l-2.9,0-3.65,0c-1.13,0-2.05.06-2.75.13v-1c1.7-.07,2.78-.36,3.25-.88s.37-1.62-.3-3.32L404,6.05l.8-.65L396.14,28a11.66,11.66,0,0,0-1,4.22,2.42,2.42,0,0,0,1.15,2.18,6.69,6.69,0,0,0,3.2.7v1c-.93-.07-1.91-.11-2.93-.13l-2.82,0-2.13,0a15.65,15.65,0,0,0-1.62.13v-1A5,5,0,0,0,392,33.92a8,8,0,0,0,1.9-3.17L405.69.45h.8Zm6.1,21.25v1h-14.9l.5-1Z"/><path d="M451.94.7c-.13,1.27-.23,2.49-.28,3.68s-.07,2.09-.07,2.72c0,.8,0,1.55.05,2.25s.06,1.32.1,1.85h-1.15a31,31,0,0,0-.95-5.53,4.85,4.85,0,0,0-2.1-2.92,9.31,9.31,0,0,0-4.65-.9h-2.7V30.3a9.1,9.1,0,0,0,.37,3A2.18,2.18,0,0,0,442,34.65a13.57,13.57,0,0,0,3.2.45v1c-.87-.07-2-.11-3.3-.13l-4.05,0-4.23,0c-1.31,0-2.37.06-3.17.13v-1a13.65,13.65,0,0,0,3.2-.45,2.17,2.17,0,0,0,1.47-1.35,9.06,9.06,0,0,0,.38-3V1.85h-2.7a9.35,9.35,0,0,0-4.63.9,4.84,4.84,0,0,0-2.12,2.92,31,31,0,0,0-.95,5.53H424a16.1,16.1,0,0,0,.12-1.85q0-1,0-2.25c0-.63,0-1.54-.08-2.72S423.92,2,423.79.7l4.57.1c1.65,0,3.31,0,5,0h9.07c1.65,0,3.31,0,5,0Z"/><path d="M250,56.38V57a5.12,5.12,0,0,0-1.55.23,1.12,1.12,0,0,0-.7.72,5.4,5.4,0,0,0-.18,1.63V74.44a5.46,5.46,0,0,0,.18,1.62,1.07,1.07,0,0,0,.7.72A6.21,6.21,0,0,0,250,77v.6c-.46,0-1-.06-1.73-.07l-2.08,0-2.19,0c-.68,0-1.23,0-1.65.07V77a6.12,6.12,0,0,0,1.54-.24,1.09,1.09,0,0,0,.71-.72,5.46,5.46,0,0,0,.18-1.62V57.94l.12.09-7.35,19.74H237L229.48,58.3V74.14a5.89,5.89,0,0,0,.19,1.7,1.35,1.35,0,0,0,.78.87,5.35,5.35,0,0,0,1.76.31v.6c-.36,0-.83-.06-1.41-.07l-1.65,0-1.52,0c-.51,0-.94,0-1.27.07V77a4.27,4.27,0,0,0,1.54-.31,1.33,1.33,0,0,0,.71-.87,6.33,6.33,0,0,0,.18-1.7V59.56a5.4,5.4,0,0,0-.18-1.63,1.13,1.13,0,0,0-.71-.72,5.1,5.1,0,0,0-1.54-.23v-.6l1.27.06,1.52,0,1.36,0,1.19-.06,6.81,17.94-.51.24,6.75-18.09h1.41c.7,0,1.39,0,2.08,0Z"/><path d="M269.26,56.38c-.08.7-.14,1.38-.17,2s0,1.16,0,1.5,0,.71,0,1,0,.6.06.82h-.7a13.7,13.7,0,0,0-.5-2.8,2.46,2.46,0,0,0-1.13-1.47,5.08,5.08,0,0,0-2.38-.44h-2.49a5.48,5.48,0,0,0-1.55.17,1,1,0,0,0-.7.69,5.4,5.4,0,0,0-.18,1.63V74.44a5.46,5.46,0,0,0,.18,1.62,1,1,0,0,0,.7.71,5.54,5.54,0,0,0,1.55.16h2.19a6.33,6.33,0,0,0,2.86-.51,3,3,0,0,0,1.41-1.66,13.13,13.13,0,0,0,.65-3.14h.69a20.49,20.49,0,0,0-.09,2.16c0,.38,0,.93,0,1.64s.08,1.44.17,2.2c-1,0-2.17-.06-3.45-.07l-3.42,0H260.6l-3.16,0c-1.13,0-2.17,0-3.16.07V77a6.21,6.21,0,0,0,1.55-.24,1.05,1.05,0,0,0,.7-.72,5.09,5.09,0,0,0,.19-1.62V59.56a5,5,0,0,0-.19-1.63,1.09,1.09,0,0,0-.7-.72,5.12,5.12,0,0,0-1.55-.23v-.6l3.16.06,3.16,0h5.52C267.29,56.45,268.34,56.42,269.26,56.38ZM264.1,66.64v.6h-5.49v-.6Zm.87-4c-.08,1.14-.12,2-.11,2.61s0,1.15,0,1.65,0,1,0,1.65.07,1.47.15,2.61h-.7c-.08-.64-.17-1.26-.28-1.87a2.86,2.86,0,0,0-.72-1.5,2.51,2.51,0,0,0-1.87-.59v-.6a2.18,2.18,0,0,0,1.84-.69,3.57,3.57,0,0,0,.68-1.62c.1-.62.18-1.17.26-1.65Z"/><path d="M282.55,56.38q5.35,0,8,2.69t2.62,7.69a12.21,12.21,0,0,1-1.28,5.72,9.07,9.07,0,0,1-3.7,3.79,12,12,0,0,1-5.89,1.35c-.43,0-1.08,0-1.94,0s-1.62,0-2.25,0l-2.07,0c-.68,0-1.24,0-1.65.07V77a6.2,6.2,0,0,0,1.54-.24,1.09,1.09,0,0,0,.71-.72,5.52,5.52,0,0,0,.17-1.62V59.56a5.47,5.47,0,0,0-.17-1.63,1.13,1.13,0,0,0-.71-.72,5.1,5.1,0,0,0-1.54-.23v-.6l1.65.08c.68,0,1.35,0,2,0l2.37-.06Zm-.75.54a2.3,2.3,0,0,0-1.8.51,3.42,3.42,0,0,0-.42,2.07v15a3.41,3.41,0,0,0,.43,2.07,2.4,2.4,0,0,0,1.82.51,9.21,9.21,0,0,0,5.07-1.18,6.25,6.25,0,0,0,2.52-3.47,18.6,18.6,0,0,0,.72-5.55q0-5-1.85-7.5T281.8,56.92Z"/><path d="M305.23,56.38V57a5.12,5.12,0,0,0-1.55.23,1.12,1.12,0,0,0-.7.72,5.4,5.4,0,0,0-.18,1.63V74.44a5.46,5.46,0,0,0,.18,1.62,1.07,1.07,0,0,0,.7.72,6.21,6.21,0,0,0,1.55.24v.6c-.46,0-1-.06-1.73-.07l-2.08,0-2.19,0c-.68,0-1.23,0-1.65.07V77a6.12,6.12,0,0,0,1.54-.24,1.09,1.09,0,0,0,.71-.72,5.82,5.82,0,0,0,.18-1.62V59.56a5.75,5.75,0,0,0-.18-1.63,1.13,1.13,0,0,0-.71-.72,5,5,0,0,0-1.54-.23v-.6l1.65.06q1,0,2.19,0c.69,0,1.39,0,2.08,0Z"/><path d="M318,56.23l7.31,18.87a3.32,3.32,0,0,0,1,1.52,2.19,2.19,0,0,0,1.05.4v.6c-.4,0-.88-.06-1.46-.07l-1.74,0-2.19,0c-.69,0-1.23,0-1.66.07V77a3,3,0,0,0,2-.52c.27-.31.21-1-.18-2l-5.58-14.91.48-.39-5.22,13.56a7,7,0,0,0-.6,2.54,1.45,1.45,0,0,0,.69,1.3,4,4,0,0,0,1.91.42v.6c-.56,0-1.14-.06-1.75-.07l-1.69,0-1.28,0a9.2,9.2,0,0,0-1,.07V77a3,3,0,0,0,1.23-.7,4.7,4.7,0,0,0,1.13-1.91l7.06-18.18H318ZM321.64,69v.6h-8.95L313,69Z"/><g id="Layer_2-2" data-name="Layer 2"><g id="Layer_1-2-2" data-name="Layer 1-2"><path d="M555.79,18.22c-.11-.39-.61-1.09-1.08-.74a.18.18,0,0,0-.09.2c0,.22.21.34.32.51a.93.93,0,0,1,0,.9,2.65,2.65,0,0,1-1.26,1.08,5.6,5.6,0,0,1-3.59.33,15.47,15.47,0,0,1-5.91-2.82,8.34,8.34,0,0,0-2.15-1.91,10.94,10.94,0,0,0-7.44-1.23,13.87,13.87,0,0,0-5.17,2,6.65,6.65,0,0,0-1.67-1,8.39,8.39,0,0,0-4.45-.94,13.41,13.41,0,0,0-7.09,2.85C512.78,20,510,23.62,506.4,26a6.22,6.22,0,0,1-.16-7.22,6.09,6.09,0,0,1,3.26-2.49,2,2,0,0,1,1.88.28,1.27,1.27,0,0,1,.36,1.45c-.1.33.34.44.51.2.79-1.16-.56-2.48-1.67-2.61a5.23,5.23,0,0,0-4.13,2,6.81,6.81,0,0,0-.21,8.45,14.3,14.3,0,0,1-1.9,1c-4.15,1.82-9.83,1.48-12.4-2.73a7.29,7.29,0,0,1-.93-5.68,5.91,5.91,0,0,1,4.89-4.14c2.15-.24,4.75,1.1,4.2,3.61a1.86,1.86,0,0,1-2,1.58A1.73,1.73,0,0,1,496.43,18a.44.44,0,0,0-.87,0c0,2.37,3.26,3.24,4.66,1.52a3.46,3.46,0,0,0,.46-3.34A4.09,4.09,0,0,0,498,13.84a6.38,6.38,0,0,0-6.72,2.22A7,7,0,0,0,490,21.6a7.84,7.84,0,0,0-2.8-2.07,6.11,6.11,0,0,0-2.86-.57,2.64,2.64,0,0,0-2.27,1.25c-.12.29.19.6.45.36a4.25,4.25,0,0,1,4.82-.35,9.86,9.86,0,0,1,2.89,2.37,8.6,8.6,0,0,0,3.71,4.93,11,11,0,0,0,7.44,1.23,13.84,13.84,0,0,0,5.29-2.14,8.13,8.13,0,0,0,6,2.06,13.39,13.39,0,0,0,7.09-2.86,36,36,0,0,0,3.68-3.18,40.4,40.4,0,0,1,6.33-5.39,6.24,6.24,0,0,1,1.54,3.35,6.08,6.08,0,0,1-.78,4A2,2,0,0,1,529,25.66a1.31,1.31,0,0,1-1.24-.86c-.13-.3-.54-.09-.51.2.18,1.39,2.07,1.48,3,.83a5.25,5.25,0,0,0,1.75-4.26,6.64,6.64,0,0,0-1.9-4.5,13.83,13.83,0,0,1,1.67-.86c4.15-1.82,9.83-1.48,12.38,2.73a7.29,7.29,0,0,1,.93,5.68,5.88,5.88,0,0,1-4.9,4.17c-2.15.26-4.75-1.1-4.2-3.61a1.85,1.85,0,0,1,2-1.58,1.72,1.72,0,0,1,1.63,1.67c0,.56.87.56.88,0,0-2.37-3.27-3.24-4.68-1.52a3.43,3.43,0,0,0-.46,3.34A4.15,4.15,0,0,0,538,29.45a6.36,6.36,0,0,0,6.72-2.23A7.11,7.11,0,0,0,545.9,21a9,9,0,0,0-1.09-2.52,24.56,24.56,0,0,0,2.48,1.56,9.32,9.32,0,0,0,4.28,1.25,4.84,4.84,0,0,0,3.84-1.43A1.79,1.79,0,0,0,555.79,18.22Zm-34.72,5.72a15.93,15.93,0,0,1-7.29,4.1,8.37,8.37,0,0,1-7-1.49c3-2,5.49-4.81,8.17-7.2a15.77,15.77,0,0,1,7.29-4.11,9.78,9.78,0,0,1,4,0l0,0a6.65,6.65,0,0,1,3,1.41l0,0,0,0C526.24,18.69,523.75,21.53,521.07,23.94Z"/></g></g><g id="Layer_2-3" data-name="Layer 2"><g id="Layer_1-2-3" data-name="Layer 1-2"><path d="M73.76,18.22c-.12-.39-.61-1.09-1.08-.74a.17.17,0,0,0-.09.2c0,.22.21.34.31.51a.91.91,0,0,1,.06.9,2.65,2.65,0,0,1-1.26,1.08,5.64,5.64,0,0,1-3.6.33,15.61,15.61,0,0,1-5.91-2.82,8.3,8.3,0,0,0-2.14-1.91,11,11,0,0,0-7.45-1.23,13.82,13.82,0,0,0-5.16,2,7,7,0,0,0-1.67-1,8.39,8.39,0,0,0-4.45-.94,13.38,13.38,0,0,0-7.09,2.85C30.75,20,28,23.62,24.37,26a6.22,6.22,0,0,1-.17-7.22,6.12,6.12,0,0,1,3.27-2.49,2,2,0,0,1,1.88.28A1.28,1.28,0,0,1,29.71,18c-.11.33.33.44.51.2.79-1.16-.56-2.48-1.68-2.61a5.2,5.2,0,0,0-4.12,2A6.8,6.8,0,0,0,24.21,26a15,15,0,0,1-1.9,1c-4.15,1.82-9.83,1.48-12.4-2.73A7.34,7.34,0,0,1,9,18.62a5.92,5.92,0,0,1,4.89-4.14c2.16-.24,4.75,1.1,4.2,3.61a1.85,1.85,0,0,1-2,1.58A1.73,1.73,0,0,1,14.4,18c0-.56-.87-.56-.88,0,0,2.37,3.26,3.24,4.67,1.52a3.45,3.45,0,0,0,.45-3.34A4.08,4.08,0,0,0,16,13.84a6.4,6.4,0,0,0-6.73,2.22A7,7,0,0,0,8,21.6a7.8,7.8,0,0,0-2.79-2.07A6.11,6.11,0,0,0,2.3,19,2.64,2.64,0,0,0,0,20.21c-.13.29.19.6.44.36a4.25,4.25,0,0,1,4.82-.35,9.91,9.91,0,0,1,2.9,2.37,8.52,8.52,0,0,0,3.71,4.93,10.94,10.94,0,0,0,7.44,1.23,14,14,0,0,0,5.29-2.14,8.11,8.11,0,0,0,6,2.06,13.39,13.39,0,0,0,7.09-2.86,38.3,38.3,0,0,0,3.68-3.18,40,40,0,0,1,6.33-5.39,6.24,6.24,0,0,1,1.54,3.35,6.08,6.08,0,0,1-.79,4,2,2,0,0,1-1.59,1.05,1.3,1.3,0,0,1-1.23-.86c-.14-.3-.55-.09-.51.2.18,1.39,2.06,1.48,3,.83a5.21,5.21,0,0,0,1.74-4.26,6.55,6.55,0,0,0-1.9-4.5,15.5,15.5,0,0,1,1.67-.86c4.16-1.82,9.83-1.48,12.38,2.73A7.34,7.34,0,0,1,63,24.62a5.91,5.91,0,0,1-4.9,4.17c-2.15.26-4.75-1.1-4.21-3.61a1.86,1.86,0,0,1,2-1.58,1.73,1.73,0,0,1,1.63,1.67c0,.56.87.56.88,0,0-2.37-3.27-3.24-4.69-1.52a3.45,3.45,0,0,0-.45,3.34A4.13,4.13,0,0,0,56,29.45a6.37,6.37,0,0,0,6.72-2.23A7.08,7.08,0,0,0,63.86,21a8.93,8.93,0,0,0-1.08-2.52,25.59,25.59,0,0,0,2.47,1.56,9.4,9.4,0,0,0,4.29,1.25,4.82,4.82,0,0,0,3.83-1.43A1.79,1.79,0,0,0,73.76,18.22ZM39,23.94a16,16,0,0,1-7.3,4.1,8.35,8.35,0,0,1-7-1.49c3-2,5.49-4.81,8.17-7.2a15.77,15.77,0,0,1,7.29-4.11,9.73,9.73,0,0,1,3.95,0l0,0a6.64,6.64,0,0,1,3,1.41l0,0,0,0C44.21,18.69,41.72,21.53,39,23.94Z"/></g></g></g></g></svg>